<svg width="513" height="473" viewBox="0 0 513 473" fill="none" xmlns="http://www.w3.org/2000/svg">
<path d="M163.178 259.436H188.649L175.914 223.024L163.178 259.436ZM326.57 185.077H315.27V290.205H326.57C354.952 290.205 378.044 266.624 378.044 237.641C378.044 208.658 354.952 185.077 326.57 185.077Z" fill="white"/>
<path d="M444.031 12H68.496C37.3479 12 12 37.8846 12 69.6923V404.308C12 436.115 37.3479 462 68.496 462H444.031C475.179 462 500.527 436.115 500.527 404.308V69.6923C500.527 37.8846 475.179 12 444.031 12ZM232.466 327.546C230.434 328.29 228.291 328.671 226.132 328.672C218.399 328.672 211.147 323.769 208.398 315.904L202.1 297.897H149.727L143.43 315.904C139.932 325.905 129.154 331.115 119.361 327.546C109.566 323.974 104.463 312.971 107.96 302.968L158.179 159.378C159.485 155.643 161.891 152.412 165.066 150.127C168.241 147.842 172.03 146.616 175.914 146.616C179.798 146.616 183.587 147.842 186.762 150.127C189.936 152.412 192.342 155.643 193.648 159.378L243.867 302.968C247.365 312.971 242.261 323.974 232.466 327.546ZM326.57 328.667H296.438C286.038 328.667 277.606 320.056 277.606 309.436V165.846C277.606 155.226 286.038 146.615 296.438 146.615H326.57C375.72 146.615 415.708 187.45 415.708 237.641C415.708 287.832 375.72 328.667 326.57 328.667Z" fill="white"/>
</svg>
