<svg width="512" height="512" viewBox="0 0 512 512" fill="none" xmlns="http://www.w3.org/2000/svg">
<path fill-rule="evenodd" clip-rule="evenodd" d="M467.844 205.949C463.488 205.035 458.972 204.555 454.345 204.555C418.2 204.555 388.899 233.856 388.899 270.001C388.899 306.146 418.2 335.447 454.345 335.447C456.111 335.447 457.861 335.377 459.592 335.239C427.175 425.723 340.66 490.454 239.027 490.454C174.797 490.454 116.605 464.6 74.2904 422.732C96.9995 429.44 121.12 431.98 145.65 430.125C157.906 429.199 166.904 427.625 172.644 425.402C194.095 417.154 200.893 391.672 187.651 373.356C182.904 366.805 176.787 362.563 169.3 360.628C165.419 359.616 158.582 359.765 148.787 361.075C104.579 366.971 67.2076 353.603 36.6719 320.97C14.0519 293.686 3.94329 263.542 6.34609 230.537C6.49879 228.445 6.70381 226.362 6.96 224.291C7.26355 222.064 7.59839 219.848 7.96407 217.641C14.3089 182.103 35.7477 150.583 66.4234 133.01C126.485 98.557 197.754 117.014 234.929 174.594C247.101 195.155 253.944 219.517 252.777 243.464C252.045 258.431 258.322 272.423 272.393 278.616C282.106 282.885 291.525 283.032 300.651 279.057C313.215 273.594 319.837 263.681 320.518 249.318C322.812 200.225 308.851 156.726 278.632 118.822C241.19 72.5854 186.978 48.5823 132.425 47.6091C164.401 31.2367 200.635 22 239.027 22C351.128 22 444.835 100.751 467.844 205.949ZM158.589 266.038L159.832 264.629C171.952 250.895 194.802 251.256 210.868 265.434L308.732 351.8C324.799 365.978 327.998 388.606 315.878 402.34L314.635 403.748C302.515 417.482 279.666 417.122 263.599 402.943L165.735 316.578C149.668 302.399 146.469 279.772 158.589 266.038Z" fill="#4153FF"/>
<ellipse cx="454.33" cy="269.98" rx="51.6675" ry="51.6677" fill="#2A2A2B"/>
</svg>
