<svg width="512" height="513" viewBox="0 0 512 513" fill="none" xmlns="http://www.w3.org/2000/svg">
<path d="M420.311 36.7852H299.627C280.187 36.7852 264.428 52.5383 264.428 71.9709V192.608C264.428 212.04 280.187 227.793 299.627 227.793H420.311C439.751 227.793 455.51 212.04 455.51 192.608V71.9709C455.51 52.5383 439.751 36.7852 420.311 36.7852Z" fill="#2A2A2B"/>
<path d="M465.13 345.342L394.805 275.056C388.196 268.478 379.249 264.785 369.921 264.785C360.594 264.785 351.647 268.478 345.038 275.056L274.713 345.342C268.126 351.945 264.428 360.888 264.428 370.212C264.428 379.535 268.126 388.479 274.713 395.081L345.038 465.367C351.644 471.95 360.593 475.647 369.921 475.647C379.25 475.647 388.198 471.95 394.805 465.367L465.13 395.081C471.721 388.481 475.423 379.537 475.423 370.212C475.423 360.887 471.721 351.942 465.13 345.342Z" fill="#2A2A2B"/>
<path d="M192.453 36.7852H71.7697C52.3296 36.7852 36.5703 52.5383 36.5703 71.9709V192.608C36.5703 212.04 52.3296 227.793 71.7697 227.793H192.453C211.893 227.793 227.653 212.04 227.653 192.608V71.9709C227.653 52.5383 211.893 36.7852 192.453 36.7852Z" fill="#2A2A2B"/>
<path d="M192.453 274.5H71.7697C52.3296 274.5 36.5703 290.253 36.5703 309.686V430.323C36.5703 449.755 52.3296 465.508 71.7697 465.508H192.453C211.893 465.508 227.653 449.755 227.653 430.323V309.686C227.653 290.253 211.893 274.5 192.453 274.5Z" fill="#2A2A2B"/>
</svg>
