<svg width="512" height="513" viewBox="0 0 512 513" fill="none" xmlns="http://www.w3.org/2000/svg">
<path d="M183.182 49.9216C181.683 50.0262 180.287 50.7218 179.302 51.8555C178.316 52.9891 177.821 54.468 177.925 55.9667C178.03 57.4654 178.725 58.8612 179.859 59.847C180.993 60.8328 182.472 61.3278 183.97 61.2233L319.33 61.6175C321.055 61.6124 322.718 62.2598 323.985 63.4297C325.253 64.5997 326.031 66.2057 326.163 67.9254L326.689 75.0218C327.127 81.0669 324.367 84.5713 318.41 85.535C260.148 95.2597 202.807 92.3248 146.385 76.7302C143.412 75.9141 140.682 74.4157 138.419 72.3589C136.157 70.3022 134.428 67.7463 133.375 64.9029C126.366 46.3296 133.944 34.5023 156.11 29.4209C212.795 16.5422 269.786 15.3595 327.083 25.8727C361.69 32.2682 377.898 53.426 375.708 89.3461C375.591 91.4284 376.12 93.5 377.224 95.2845C378.327 97.0689 379.953 98.4814 381.884 99.3336C413.161 112.825 423.193 138.057 411.979 175.029C411.644 176.233 411.075 177.355 410.307 178.326C409.54 179.297 408.588 180.097 407.51 180.679L385.564 193.032C381.884 195.047 379.825 198.158 379.387 202.363C371.239 280.686 362.172 358.703 352.184 436.413C348.154 467.777 330.194 485.649 298.303 490.03C243.371 497.652 159.658 502.383 152.956 433.784C145.86 361.594 138.807 291.374 131.798 223.126C131.455 219.693 132.249 216.245 134.055 213.321C135.862 210.398 138.58 208.162 141.786 206.962C149.233 204.159 153.569 207.488 154.796 216.95C164.696 292.645 174.027 368.077 182.788 443.246C183.314 447.818 185.325 452.087 188.509 455.39C191.693 458.693 195.873 460.845 200.398 461.513C229.572 465.981 261.025 466.945 294.755 464.404C316.395 462.827 328.222 451.525 330.237 430.499C337.246 355.855 344.08 280.817 350.738 205.385C350.824 204.409 350.691 203.426 350.347 202.507C350.004 201.589 349.46 200.76 348.754 200.079C348.048 199.399 347.199 198.885 346.269 198.575C345.339 198.265 344.352 198.168 343.379 198.289C271.45 206.524 199.127 204.203 126.41 191.324C80.6769 183.176 83.4366 125.091 113.662 106.43C120.058 102.488 130.834 101.611 145.991 103.802C211.524 113.176 277.276 114.49 343.248 107.744C346.664 107.394 348.723 105.554 349.424 102.225C356.608 70.2471 345.788 52.6375 316.964 49.396C270.18 44.1394 225.586 44.3146 183.182 49.9216ZM129.958 129.033C128.009 128.655 125.988 129.079 124.337 130.212C122.686 131.346 121.541 133.096 121.153 135.078L117.736 153.082C117.509 154.181 117.508 155.314 117.732 156.413C117.956 157.512 118.401 158.553 119.04 159.475C119.68 160.397 120.499 161.179 121.45 161.774C122.4 162.37 123.462 162.766 124.57 162.938C205.172 175.992 285.994 177.788 367.034 168.326C388.061 165.961 396.997 150.585 385.038 132.319C382.848 128.99 379.781 127.719 375.839 128.508C293.835 144.628 211.875 144.803 129.958 129.033Z" fill="#2A2A2B"/>
<path d="M322.478 394.211C322.215 412.346 317.572 428.905 308.548 443.886C307.475 445.708 306.034 447.29 304.316 448.534C302.597 449.777 300.638 450.655 298.56 451.114C252.17 460.97 192.638 472.009 188.564 411.164C185.498 364.468 180.46 316.633 173.452 267.659C173.164 265.612 173.344 263.527 173.978 261.56C174.613 259.593 175.685 257.795 177.115 256.303C178.544 254.81 180.293 253.661 182.231 252.942C184.169 252.223 186.244 251.953 188.302 252.152C222.733 255.744 256.595 248.122 289.887 229.286C298.122 224.642 311.439 224.817 329.838 229.811C333.955 230.863 335.795 233.491 335.357 237.696C329.706 289.868 323.135 342.039 322.478 394.211Z" fill="#2A2A2B"/>
</svg>
