<svg width="512" height="513" viewBox="0 0 512 513" fill="none" xmlns="http://www.w3.org/2000/svg">
<path d="M499.231 60.7966L474.543 36.1152C469.729 31.2981 461.917 31.2943 457.099 36.1075C457.096 36.1114 457.092 36.1114 457.092 36.1152L308.974 184.213C306.66 186.528 305.359 189.666 305.357 192.939V217.624C305.357 224.437 310.883 229.963 317.701 229.963H342.389C345.662 229.963 348.8 228.663 351.112 226.351L499.231 78.2495C504.048 73.4324 504.052 65.6243 499.238 60.8034L499.233 60.8015L499.231 60.7966Z" fill="#2A2A2B"/>
<path d="M342.406 254.711H317.718C297.275 254.689 280.709 238.124 280.687 217.688V193.003C280.676 188.139 281.629 183.322 283.491 178.829C285.353 174.336 288.087 170.257 291.536 166.827L376.442 81.9297H70.8577C36.7871 81.9663 9.18115 109.57 9.14258 143.638V365.786C9.18115 399.853 36.7871 427.46 70.8577 427.494H181.945V489.202C181.945 496.019 187.47 501.544 194.288 501.544C196.959 501.544 199.558 500.678 201.694 499.074L297.159 427.494H416.46C450.531 427.456 478.142 399.849 478.176 365.786V134.285L368.585 243.864C365.155 247.312 361.075 250.046 356.582 251.908C352.088 253.77 347.27 254.723 342.406 254.711ZM95.5457 155.98H218.976C225.79 155.98 231.315 161.504 231.315 168.321C231.315 175.135 225.79 180.661 218.976 180.661H95.5457C88.7281 180.661 83.2017 175.139 83.2017 168.322C83.2017 161.505 88.7261 155.98 95.5437 155.98H95.5457ZM95.5457 230.027H218.976C225.79 230.027 231.315 235.552 231.315 242.368C231.315 249.186 225.79 254.711 218.976 254.711H95.5457C88.7281 254.711 83.2017 249.186 83.2017 242.369C83.2017 235.555 88.7281 230.027 95.5457 230.027ZM404.117 316.419C404.117 323.236 398.592 328.762 391.777 328.762H95.5437C88.7261 328.762 83.2007 323.237 83.2007 316.42C83.2007 309.606 88.7261 304.078 95.5437 304.078H391.776C398.59 304.078 404.116 309.602 404.116 316.419H404.117Z" fill="#2A2A2B"/>
</svg>
