<svg width="512" height="513" viewBox="0 0 512 513" fill="none" xmlns="http://www.w3.org/2000/svg">
<path d="M417.068 96.2323C396.902 92.2103 377.228 85.9327 358.401 77.5125C334.654 66.8836 312.45 52.9549 292.417 36.1192C282.15 27.4984 269.283 22.7852 256.005 22.7813C242.727 22.7773 229.857 27.4827 219.585 36.0974C199.555 52.9434 177.351 66.8798 153.601 77.5125C134.773 85.9296 115.099 92.2071 94.9343 96.2323C81.6719 98.9705 69.7465 106.331 61.189 117.061C52.6314 127.791 47.9709 141.226 48.001 155.079V279.411C47.8887 314.93 57.4962 349.771 75.7344 379.985C93.9725 410.199 120.112 434.578 151.19 450.358L234.518 493.018C241.185 496.432 248.536 498.21 255.99 498.21C263.444 498.21 270.796 496.432 277.462 493.018L360.812 450.358C391.886 434.575 418.042 410.195 436.277 379.981C454.511 349.767 464.115 314.928 464.001 279.411V155.079C464.027 141.227 459.365 127.794 450.808 117.065C442.251 106.336 430.328 98.9744 417.068 96.2323ZM256.001 152.173C260.748 152.173 265.388 153.615 269.335 156.315C273.281 159.015 276.358 162.853 278.174 167.343C279.991 171.833 280.466 176.774 279.54 181.541C278.614 186.308 276.328 190.687 272.972 194.124C269.615 197.56 265.339 199.901 260.683 200.849C256.028 201.797 251.202 201.31 246.817 199.451C242.431 197.591 238.683 194.441 236.046 190.4C233.409 186.359 232.001 181.607 232.001 176.747C232.001 170.23 234.53 163.979 239.03 159.371C243.531 154.762 249.636 152.173 256.001 152.173ZM277.334 354.225H256.001C251.758 354.225 247.688 352.499 244.687 349.427C241.687 346.354 240.001 342.187 240.001 337.842V266.851H234.668C230.424 266.851 226.355 265.125 223.354 262.053C220.353 258.981 218.668 254.814 218.668 250.469C218.668 246.124 220.353 241.957 223.354 238.885C226.355 235.812 230.424 234.086 234.668 234.086H256.001C260.244 234.086 264.314 235.812 267.315 238.885C270.315 241.957 272.001 246.124 272.001 250.469V321.46H277.334C281.578 321.46 285.647 323.186 288.648 326.258C291.649 329.331 293.334 333.498 293.334 337.842C293.334 342.187 291.649 346.354 288.648 349.427C285.647 352.499 281.578 354.225 277.334 354.225Z" fill="#2A2A2B"/>
</svg>
