<svg width="512" height="513" viewBox="0 0 512 513" fill="none" xmlns="http://www.w3.org/2000/svg">
<path d="M414.04 192.573L329.511 180.29L291.708 103.695C277.113 74.1172 234.892 74.1062 220.29 103.694L182.487 180.29L97.9585 192.573C65.3185 197.315 52.2636 237.464 75.8895 260.496L137.055 320.118L122.616 404.304C117.04 436.809 151.186 461.634 180.395 446.283L255.999 406.533L331.605 446.283C360.848 461.654 394.946 436.736 389.381 404.304L374.942 320.118L436.109 260.496C459.726 237.472 446.693 197.318 414.04 192.573ZM134.73 90.0531L114.319 61.9612C108.778 54.3372 98.1055 52.6462 90.4815 58.1872C82.8565 63.7272 81.1665 74.4002 86.7065 82.0251L107.117 110.117C112.661 117.745 123.335 119.43 130.955 113.891C138.58 108.352 140.27 97.6781 134.73 90.0531ZM66.9965 341.809C64.0835 332.846 54.4576 327.936 45.4916 330.852L11.7966 341.801C2.83266 344.712 -2.07233 354.341 0.839663 363.306C3.75766 372.287 13.4036 377.172 22.3446 374.263L56.0406 363.314C65.0045 360.403 69.9095 350.774 66.9965 341.809ZM421.518 58.1872C413.894 52.6462 403.221 54.3362 397.68 61.9612L377.269 90.0531C371.728 97.6781 373.419 108.352 381.044 113.891C388.672 119.433 399.343 117.739 404.882 110.117L425.293 82.0251C430.834 74.4002 429.143 63.7272 421.518 58.1872ZM500.203 341.801L466.507 330.852C457.543 327.934 447.915 332.845 445.002 341.809C442.089 350.773 446.994 360.401 455.959 363.314L489.655 374.263C498.601 377.173 508.243 372.282 511.16 363.306C514.072 354.342 509.167 344.714 500.203 341.801Z" fill="#2A2A2B"/>
</svg>
