<svg width="512" height="513" viewBox="0 0 512 513" fill="none" xmlns="http://www.w3.org/2000/svg">
<path d="M404.221 228.343C407.018 219.952 409.815 211.562 409.815 200.374C409.815 138.843 359.475 88.5 297.949 88.5C255.999 88.5 216.846 113.672 200.067 150.031C191.677 147.234 180.49 144.437 172.1 144.437C132.947 144.437 102.184 175.203 102.184 214.359C102.184 219.952 102.184 225.546 104.981 228.343C54.6415 236.733 18.2852 275.889 18.2852 326.233C18.2852 379.373 63.0314 424.123 116.168 424.123H395.831C448.967 424.123 493.714 379.373 493.714 326.233C493.714 275.889 454.561 233.937 404.221 228.343ZM228.033 393.357L138.541 303.858L177.694 264.702L228.033 315.045L334.305 208.765L373.458 247.921L228.033 393.357Z" fill="#2A2A2B"/>
</svg>
