<svg width="512" height="513" viewBox="0 0 512 513" fill="none" xmlns="http://www.w3.org/2000/svg">
<path fill-rule="evenodd" clip-rule="evenodd" d="M297.35 98.3006C297.35 54.5613 333.007 19.0705 376.938 19.0705C387.368 19.0455 397.7 21.0751 407.346 25.0432C416.991 29.0114 425.761 34.8405 433.153 42.1977C440.546 49.5549 446.417 58.2961 450.432 67.9223C454.446 77.5484 456.525 87.871 456.55 98.3006C456.55 142.064 420.892 177.555 376.938 177.555C366.397 177.567 355.959 175.485 346.23 171.429C336.501 167.373 327.675 161.423 320.266 153.926L210.083 228.948C213.152 244.233 211.647 260.084 205.756 274.518L326.565 353.915C340.794 342.31 358.6 335.986 376.962 336.015C387.392 335.993 397.724 338.025 407.368 341.997C417.012 345.968 425.78 351.799 433.17 359.159C440.561 366.518 446.429 375.261 450.441 384.888C454.452 394.516 456.528 404.839 456.55 415.269C456.55 459.008 420.892 494.499 376.938 494.499C355.878 494.543 335.663 486.221 320.738 471.363C305.813 456.505 297.4 436.328 297.35 415.269C297.331 404.159 299.673 393.172 304.22 383.035L184.362 304.327C169.847 316.948 151.25 323.881 132.016 323.844C121.585 323.869 111.252 321.838 101.606 317.868C91.9605 313.898 83.1916 308.067 75.8005 300.707C68.4095 293.347 62.541 284.603 58.5306 274.974C54.5202 265.345 52.4464 255.02 52.4277 244.59C52.4496 234.161 54.5257 223.839 58.5375 214.213C62.5493 204.587 68.4182 195.846 75.8089 188.488C83.1997 181.131 91.9676 175.301 101.612 171.333C111.256 167.364 121.587 165.335 132.016 165.36C157.309 165.36 179.798 177.079 194.37 195.336L301.177 122.619C298.636 114.763 297.344 106.557 297.35 98.3006Z" fill="#2A2A2B"/>
</svg>
