<svg width="512" height="513" viewBox="0 0 512 513" fill="none" xmlns="http://www.w3.org/2000/svg">
<path fill-rule="evenodd" clip-rule="evenodd" d="M36.8352 268.806C37.8764 284.826 39.6279 297.495 44.0424 313.837C45.24 318.269 49.1225 321.243 53.7144 321.243H115.263C116.668 321.249 118.058 320.958 119.342 320.39C120.627 319.821 121.777 318.988 122.717 317.945C123.658 316.902 124.368 315.672 124.8 314.335C125.233 312.999 125.379 311.586 125.228 310.19C121.594 275.176 121.204 238.761 124.099 203.441C124.218 202.06 124.048 200.669 123.6 199.357C123.151 198.045 122.435 196.841 121.495 195.821C120.556 194.802 119.414 193.989 118.144 193.435C116.873 192.881 115.501 192.598 114.114 192.604H53.7153C49.1244 192.604 45.2409 195.578 44.0434 200.011C41.0228 211.169 38.9078 222.552 37.7191 234.049C36.6435 244.49 36.5234 251.269 36.5797 261.577L36.8352 268.806ZM130.686 152.284C134.735 129.587 140.169 107.862 146.866 87.5748C149.86 78.5046 139.523 70.7627 131.663 76.1875C105.443 94.2802 83.3242 117.928 67.0428 145.417C63.0755 152.115 67.879 160.544 75.6631 160.544H120.823C125.721 160.544 129.826 157.106 130.686 152.284ZM347.905 148.576C340.478 111.098 328.993 76.9474 314.019 48.6898C312.627 46.0647 310.413 44.3435 307.524 43.6436C273.7 35.4488 238.145 35.4555 204.344 43.6436C201.456 44.3435 199.242 46.0637 197.85 48.6898C182.877 76.9484 171.392 111.098 163.965 148.576C163.671 150.03 163.705 151.53 164.063 152.969C164.421 154.408 165.095 155.749 166.036 156.895C166.977 158.041 168.161 158.963 169.503 159.594C170.845 160.225 172.31 160.549 173.793 160.544H338.077C344.424 160.544 349.138 154.803 347.905 148.576ZM391.046 160.544H436.208C443.992 160.544 448.794 152.116 444.828 145.418C428.546 117.925 406.426 94.2697 380.203 76.1808C372.343 70.7579 362.007 78.4998 365.001 87.5691C371.698 107.858 377.133 129.586 381.183 152.285C382.044 157.106 386.149 160.544 391.046 160.544ZM396.608 321.244H458.156C462.747 321.244 466.631 318.271 467.828 313.838C470.85 302.681 472.965 291.297 474.152 279.799C475.318 268.393 475.289 263.171 475.289 251.831C475.289 247.287 474.554 237.963 474.151 234.049C472.962 222.552 470.847 211.169 467.826 200.011C466.63 195.578 462.745 192.604 458.155 192.604H397.756C396.37 192.598 394.998 192.881 393.727 193.435C392.456 193.989 391.315 194.802 390.376 195.821C389.436 196.841 388.72 198.045 388.271 199.357C387.823 200.669 387.653 202.06 387.772 203.441C390.667 238.762 390.277 275.175 386.643 310.19C386.492 311.586 386.638 312.999 387.071 314.335C387.503 315.672 388.213 316.902 389.153 317.945C390.094 318.989 391.244 319.822 392.528 320.39C393.813 320.959 395.203 321.25 396.608 321.244ZM378.856 361.309C374.064 384.657 367.527 408.018 359.209 429.804C355.768 438.815 365.854 447.019 373.973 441.814C402.985 423.209 427.246 398.079 444.821 368.431C448.79 361.733 443.987 353.304 436.202 353.304H388.67C383.863 353.305 379.823 356.6 378.856 361.309ZM152.659 429.8C144.341 408.012 137.806 384.658 133.014 361.31C132.047 356.6 128.007 353.305 123.201 353.305H75.6688C67.8838 353.305 63.0812 361.734 67.0495 368.432C84.6257 398.077 108.886 423.204 137.895 441.81C146.014 447.014 156.1 438.811 152.659 429.8ZM335.281 353.305H176.59C175.083 353.299 173.594 353.634 172.234 354.286C170.875 354.937 169.681 355.888 168.741 357.067C167.802 358.246 167.141 359.622 166.809 361.092C166.477 362.563 166.482 364.089 166.824 365.558C175.835 404.954 189.402 440.107 206.679 467.66C208.199 470.086 210.41 471.609 213.219 472.166C241.419 477.752 270.427 477.757 298.651 472.166C301.459 471.609 303.67 470.086 305.191 467.66C322.468 440.107 336.036 404.96 345.047 365.558C345.389 364.089 345.394 362.563 345.062 361.092C344.73 359.622 344.069 358.246 343.13 357.067C342.19 355.888 340.996 354.937 339.637 354.286C338.277 353.634 336.788 353.299 335.281 353.305ZM154.245 250.499C154.245 271.522 155.482 292.262 157.802 312.373C158.076 314.819 159.244 317.077 161.08 318.714C162.917 320.351 165.294 321.252 167.754 321.244H344.117C349.231 321.244 353.482 317.454 354.069 312.373C358.295 275.633 358.756 238.557 355.445 201.723C355.225 199.23 354.078 196.909 352.231 195.221C350.383 193.533 347.969 192.599 345.467 192.605H166.403C163.901 192.599 161.487 193.533 159.639 195.221C157.792 196.909 156.645 199.23 156.425 201.723C154.968 217.941 154.24 234.216 154.245 250.499Z" fill="#2A2A2B"/>
</svg>
