<svg width="512" height="512" viewBox="0 0 512 512" fill="none" xmlns="http://www.w3.org/2000/svg">
<path d="M237.89 43.5H250.852C261.513 43.7236 272.156 44.2539 282.78 45.0908C297.025 46.2113 310.726 48.231 324.228 51.8968C333.462 54.4007 344.449 58.312 349.505 67.0824C351.977 71.3638 352.977 76.1709 353.845 81.303C355.221 89.4232 356.582 97.5042 357.926 105.546C358.808 110.82 360.222 115.305 365.901 117.259C368.252 118.069 370.701 118.598 372.931 119.549C377.941 121.688 381.774 125.174 384.43 130.007C386.524 133.82 387.995 137.865 388.843 142.142C389.756 146.745 390.521 151.116 391.513 155.495C393.1 162.505 392.99 169.95 390.106 176.556C386.571 184.646 380.408 189.981 371.617 192.561C370.006 193.034 368.431 193.419 366.893 193.716C365.429 194 364.246 194.408 363.345 194.94C360.845 196.417 359.544 198.814 359.243 201.722C352.172 270.732 345.129 339.504 338.113 408.039C337.871 410.414 337.601 412.459 337.304 414.175C333.372 436.982 315.665 451.697 293.583 455.962C287.755 457.089 281.684 457.812 275.372 458.13C272.478 458.275 269.583 458.399 266.685 458.5H254.529C248.479 458.359 242.429 458.237 236.379 458.133C227.164 457.977 218.452 457.421 210.245 456.466C206.8 456.065 203.628 455.58 200.727 455.011C191.366 453.174 181.917 449.29 174.783 442.861C166.983 435.829 162.515 426.846 161.378 415.911C154.752 352.257 147.988 287.268 141.085 220.944C140.355 213.958 147.929 208.635 154.226 209.22C158.819 209.645 162.094 212.938 163.654 217.205C164.12 218.48 164.404 219.619 164.508 220.622C170.802 281.369 176.982 340.781 183.048 398.858C184.355 411.359 186.718 423.792 198.386 430.612C206.409 435.301 216.227 436.605 225.734 436.661C235.413 436.721 246.054 436.859 257.658 437.076C269.392 437.294 280.812 436.304 292.442 433.825C296.962 432.86 301.105 431.359 304.702 428.71C309.528 425.155 312.608 420.29 313.943 414.116C315.222 408.181 315.454 402.136 315.935 396.157C316.119 393.874 316.329 391.581 316.564 389.278C322.639 330.187 328.779 270.383 334.983 209.867C335.149 208.253 335.166 207.043 335.035 206.239C334.323 201.902 330.228 198.911 325.881 199.384C261.054 206.488 196.02 204.413 132.041 193.28C129.039 192.757 126.801 192.226 125.325 191.686C114.02 187.557 106.989 177.531 106 165.628V162.529C106.233 159.949 106.624 157.394 107.172 154.865C107.991 151.091 108.868 146.737 109.804 141.803C111.084 135.059 113.408 129.032 118.243 124.173C122.856 119.534 128.364 116.839 134.766 116.087C138.847 115.61 142.88 116.167 147.071 116.91C156.291 118.545 164.46 119.806 171.577 120.693C198.799 124.085 226.523 125.688 254.75 125.504C280.996 125.331 306.8 123.608 332.161 120.334C333.563 120.152 334.582 119.837 335.218 119.39C336.636 118.39 337.103 116.689 336.747 115.022C334.635 105.196 332.543 95.4592 330.47 85.8127C329.81 82.7417 328.668 79.8644 326.362 77.9173C323.104 75.168 318.701 74.2653 314.503 73.4526C307.981 72.1903 301.849 70.8865 295.209 69.9908C288.228 69.0502 279.984 68.302 270.478 67.7464C247.723 66.4207 225.1 66.823 202.612 68.9533C198.784 69.313 194.948 69.8248 191.078 70.3332C187.83 70.7574 183.509 71.5067 178.117 72.5811C177.487 72.7056 177.036 72.9085 176.764 73.1898C175.678 74.2965 176.253 76.0533 177.76 76.368C186.153 78.1202 194.928 79.4033 204.085 80.2171C228.828 82.4189 253.785 82.5803 278.955 80.7013C285.961 80.1779 293.208 79.3756 300.694 78.2943C302.338 78.0568 304.145 78.2009 306.116 78.7266C311.221 80.0823 314.894 85.2006 314.444 90.4365C314.116 94.251 311.937 98.3422 308.409 100.182C307.545 100.634 306.252 100.989 304.533 101.247C280.276 104.892 255.531 106.034 230.676 105.28C209.657 104.64 188.765 102.938 168.513 98.2765C162.758 96.9532 157.144 95.0857 151.671 92.674C146.089 90.2152 140.448 86.2208 138.176 80.39C135.486 73.4941 138.01 65.955 143.62 61.2101C145.778 59.3841 148.263 57.8244 151.076 56.531C156.007 54.26 161.405 52.3879 167.268 50.9147C175.111 48.9457 183.052 47.5036 191.089 46.5883C206.635 44.8176 222.236 43.7882 237.89 43.5ZM137.388 170.805C160.223 174.239 183.259 176.815 205.953 178.493C232.859 180.482 260.206 180.621 287.995 178.908C311.511 177.46 333.991 175.098 355.432 171.821C360.167 171.095 365.233 169.791 367.637 165.181C368.34 163.835 368.718 161.837 368.771 159.188C368.913 151.933 367.485 140.278 357.933 139.763C355.888 139.654 353.869 139.792 351.877 140.174C340.322 142.395 328.435 144.231 316.218 145.683C278.426 150.177 239.821 150.82 200.406 147.613C188.968 146.682 177.943 145.433 167.33 143.868C162.163 143.107 157.363 142.021 152.321 140.876C148.171 139.939 143.672 139.296 139.345 139.559C138.114 139.632 137.062 139.88 136.188 140.302C132.992 141.852 131.522 145.825 130.789 149.035C129.835 153.229 128.853 157.666 129.091 161.913C129.105 162.183 129.326 162.311 129.309 162.615C129.256 163.549 129.42 164.515 129.8 165.513C131.042 168.792 133.926 170.282 137.388 170.805Z" fill="white"/>
<path d="M209.006 422.395C201.689 419.138 196.332 412.875 194.312 405.059C193.985 403.791 193.719 402.112 193.516 400.024C188.525 348.58 183.506 297.011 178.459 245.318C178.447 245.178 178.508 245.126 178.642 245.163C196.651 250.069 214.598 250.063 232.485 245.146C244.382 241.874 255.787 236.697 267.262 231.859C273.708 229.14 280.397 226.934 286.923 225.682C298.363 223.493 310.028 224.797 321.074 228.736C321.098 228.745 321.119 228.762 321.133 228.784C321.147 228.806 321.153 228.831 321.15 228.857C315.651 287.231 310.228 344.661 304.882 401.148C303.817 412.384 295.562 421.666 284.436 424.059C282.931 424.382 280.769 424.603 277.952 424.723C269.707 425.078 261.369 425.397 252.938 425.681C249.635 425.792 246.329 425.764 243.026 425.653C233.548 425.335 224.878 424.95 217.016 424.498C214.498 424.353 211.828 423.652 209.006 422.395Z" fill="white"/>
</svg>
