<svg width="512" height="512" viewBox="0 0 512 512" fill="none" xmlns="http://www.w3.org/2000/svg">
<path d="M404.417 390.648H106.918C95.1819 390.648 85.668 400.129 85.668 411.825C85.668 423.52 95.1819 433.001 106.918 433.001H404.417C416.153 433.001 425.667 423.52 425.667 411.825C425.667 400.129 416.153 390.648 404.417 390.648Z" fill="white"/>
<path d="M85.668 369.471V411.824C85.668 423.519 95.1819 433 106.918 433C118.654 433 128.168 423.519 128.168 411.824V369.471C128.168 357.775 118.654 348.294 106.918 348.294C95.1819 348.294 85.668 357.775 85.668 369.471Z" fill="white"/>
<path d="M383.168 369.471V411.824C383.168 423.519 392.682 433 404.418 433C416.154 433 425.668 423.519 425.668 411.824V369.471C425.668 357.775 416.154 348.294 404.418 348.294C392.682 348.294 383.168 357.775 383.168 369.471Z" fill="white"/>
<path d="M255.698 327.117C251.292 327.15 246.985 325.818 243.373 323.305L158.373 263.587C153.792 260.349 150.684 255.434 149.728 249.919C148.772 244.403 150.047 238.734 153.273 234.152C154.883 231.862 156.933 229.912 159.304 228.416C161.675 226.919 164.319 225.905 167.085 225.433C169.851 224.96 172.684 225.038 175.419 225.662C178.155 226.287 180.739 227.445 183.023 229.07L255.698 279.682L327.947 225.47C332.456 222.1 338.123 220.653 343.703 221.447C349.282 222.242 354.316 225.212 357.697 229.705C361.079 234.198 362.531 239.846 361.734 245.406C360.937 250.966 357.956 255.982 353.447 259.352L268.448 322.882C264.769 325.631 260.296 327.117 255.698 327.117Z" fill="white"/>
<path d="M255.668 284.765C250.032 284.765 244.627 282.534 240.642 278.562C236.657 274.591 234.418 269.205 234.418 263.588V94.1765C234.418 88.5601 236.657 83.1738 240.642 79.2024C244.627 75.2311 250.032 73 255.668 73C261.304 73 266.709 75.2311 270.694 79.2024C274.679 83.1738 276.918 88.5601 276.918 94.1765V263.588C276.918 269.205 274.679 274.591 270.694 278.562C266.709 282.534 261.304 284.765 255.668 284.765Z" fill="white"/>
</svg>
