<svg width="1025" height="1025" viewBox="0 0 1025 1025" fill="none" xmlns="http://www.w3.org/2000/svg">
<path d="M204.393 22.0086L204.102 22.0081C201.532 22.0036 199.446 24.0831 199.441 26.6527L199.358 74.0525C199.354 76.6221 201.433 78.7089 204.003 78.7134L204.294 78.7139C206.863 78.7184 208.95 76.6389 208.955 74.0693L209.037 26.6695C209.042 24.0999 206.962 22.0131 204.393 22.0086Z" fill="#686868"/>
<path d="M118.385 61.1294L118.248 61.2663C116.276 63.2313 116.271 66.4227 118.236 68.3946L150.189 100.459C152.154 102.431 155.345 102.437 157.317 100.472L157.454 100.335C159.426 98.3699 159.432 95.1784 157.467 93.2065L125.514 61.1419C123.549 59.17 120.357 59.1645 118.385 61.1294Z" fill="#686868"/>
<path d="M845.363 273.79L845.557 306.117L844.927 845.254L839.741 851.457C836.801 855.012 835.217 854.478 834.991 849.858L834.458 839.389L834.264 240.591C834.264 238.652 833.311 237.634 831.405 237.537C819.644 237.085 807.204 237.117 794.086 237.634C755.943 239.185 728.463 216.309 729.82 176.858C730.272 163.093 730.32 149.636 729.965 136.486C729.94 135.32 729.459 134.211 728.625 133.395C727.792 132.58 726.672 132.123 725.506 132.124C574.809 131.542 415.888 131.51 248.745 132.027C226.887 132.075 208.47 135.322 197.226 155.872C193.671 162.366 191.894 174.677 191.894 192.803C191.862 411.288 191.91 629.774 192.04 848.259C191.975 850.391 191.7 852.088 191.216 853.348C190.569 854.931 189.6 855.157 188.308 854.026L180.311 846.999L180.068 305.972L179.826 283.144C180.214 256.908 180.327 230.623 180.165 204.29C180.036 178.247 181.749 161.381 185.303 153.691C196.062 130.379 217.63 120.831 242.105 120.88C411.123 121.461 570.802 121.461 721.144 120.88C735.329 120.815 747.397 125.758 757.348 135.71C781.905 160.137 806.008 184.144 829.66 207.731C849.386 227.456 845.751 247.667 845.363 273.79ZM745.426 200.994C760.111 231.721 797.818 227.117 825.54 226.342C829.062 226.245 829.579 224.936 827.091 222.416L743.584 138.812C743.341 138.562 743.028 138.393 742.685 138.328C742.343 138.263 741.989 138.304 741.672 138.447C741.354 138.59 741.088 138.828 740.91 139.127C740.732 139.426 740.65 139.773 740.676 140.121C741.742 159.459 737.283 184.031 745.426 200.994Z" fill="#686868"/>
<path d="M834.449 839.399C830.604 866.864 813.737 890.887 783.85 911.469C755.933 930.693 731.167 945.815 709.551 956.833C684.22 969.725 657.014 979.854 627.934 987.221C503.926 1018.59 386.638 1000.02 276.07 931.485C267.508 926.186 250.448 913.989 224.89 894.893L199.785 867.994C195.681 861.532 193.096 854.957 192.03 848.269C191.901 629.784 191.852 411.298 191.885 192.813C191.885 174.687 193.662 162.377 197.216 155.882C208.46 135.332 226.877 132.085 248.735 132.037C415.879 131.52 574.799 131.552 725.497 132.134C726.663 132.133 727.782 132.59 728.616 133.405C729.449 134.221 729.93 135.33 729.956 136.496C730.311 149.646 730.262 163.104 729.81 176.868C728.453 216.319 755.933 239.195 794.076 237.644C807.194 237.127 819.634 237.095 831.395 237.547C833.302 237.644 834.255 238.662 834.255 240.601L834.449 839.399ZM634.623 377.081C642.232 396.759 666.271 401.557 685.173 399.473C687.822 399.15 689.47 397.696 690.116 395.111L690.504 393.56C691.021 391.524 690.213 390.474 688.081 390.41C669.906 389.828 652.264 389.876 642.087 371.459C641.901 371.117 641.647 370.816 641.341 370.575C641.034 370.334 640.682 370.158 640.305 370.058C639.929 369.958 639.535 369.936 639.15 369.994C638.764 370.052 638.395 370.187 638.064 370.393L636.658 371.217C634.332 372.606 633.653 374.561 634.623 377.081ZM386.767 377.421C378.722 390.797 362.97 393.463 348.043 392.348C345.07 392.122 343.002 393.398 341.839 396.177L341.209 397.776C341.08 398.077 341.02 398.402 341.033 398.729C341.047 399.055 341.134 399.374 341.287 399.663C341.441 399.951 341.657 400.202 341.92 400.395C342.184 400.589 342.487 400.721 342.808 400.781C365.943 405.337 383.552 399.974 395.636 384.691C396.678 383.332 397.286 381.693 397.381 379.989C397.64 375.078 396.25 372.816 393.213 373.204C390.402 373.592 388.253 374.997 386.767 377.421ZM652.446 465.871C655.036 465.862 657.599 465.229 659.988 464.008C662.377 462.786 664.545 461.001 666.369 458.753C668.193 456.506 669.637 453.84 670.618 450.908C671.599 447.976 672.098 444.836 672.087 441.666C672.076 438.497 671.555 435.36 670.553 432.435C669.552 429.51 668.089 426.854 666.25 424.62C664.41 422.385 662.23 420.614 659.832 419.41C657.435 418.205 654.867 417.59 652.277 417.599C649.687 417.608 647.124 418.241 644.735 419.463C642.346 420.684 640.177 422.469 638.353 424.717C636.53 426.965 635.086 429.63 634.105 432.562C633.124 435.494 632.624 438.634 632.636 441.804C632.647 444.974 633.168 448.11 634.169 451.035C635.171 453.96 636.633 456.616 638.473 458.851C640.312 461.086 642.493 462.856 644.89 464.06C647.288 465.265 649.855 465.88 652.446 465.871ZM380.104 468.774C382.681 468.72 385.22 468.036 387.575 466.761C389.931 465.487 392.057 463.646 393.831 461.345C395.606 459.043 396.996 456.326 397.92 453.348C398.844 450.371 399.285 447.191 399.218 443.99C399.083 437.526 396.886 431.37 393.11 426.876C389.334 422.382 384.288 419.919 379.084 420.028C376.507 420.082 373.968 420.765 371.612 422.04C369.257 423.315 367.131 425.156 365.357 427.457C363.582 429.758 362.192 432.476 361.268 435.453C360.344 438.431 359.903 441.611 359.97 444.812C360.105 451.276 362.302 457.432 366.078 461.926C369.854 466.419 374.9 468.883 380.104 468.774ZM392.098 491.527C392.106 487.221 388.12 483.085 381.017 480.027C373.915 476.97 364.278 475.243 354.226 475.225C349.249 475.217 344.319 475.628 339.72 476.436C335.12 477.244 330.94 478.432 327.418 479.934C323.896 481.436 321.101 483.221 319.193 485.187C317.285 487.154 316.301 489.263 316.297 491.395C316.29 495.701 320.276 499.838 327.378 502.895C334.481 505.953 344.118 507.68 354.17 507.697C359.147 507.706 364.076 507.295 368.676 506.487C373.275 505.679 377.456 504.49 380.978 502.989C384.5 501.487 387.295 499.702 389.203 497.736C391.111 495.769 392.095 493.659 392.098 491.527ZM717.302 490.768C717.273 488.687 716.229 486.64 714.229 484.745C712.23 482.85 709.314 481.143 705.648 479.723C701.983 478.302 697.639 477.195 692.866 476.465C688.092 475.736 682.982 475.397 677.827 475.469C672.672 475.541 667.573 476.022 662.822 476.885C658.071 477.748 653.76 478.976 650.135 480.498C646.511 482.021 643.644 483.808 641.698 485.758C639.752 487.708 638.766 489.783 638.795 491.864C638.824 493.945 639.868 495.992 641.867 497.887C643.867 499.782 646.783 501.488 650.448 502.909C654.114 504.33 658.457 505.437 663.231 506.166C668.005 506.896 673.115 507.235 678.27 507.163C683.425 507.091 688.523 506.61 693.275 505.747C698.026 504.884 702.337 503.656 705.962 502.134C709.586 500.611 712.453 498.824 714.399 496.874C716.345 494.924 717.331 492.849 717.302 490.768ZM548.789 499.846C540.114 523.837 513.748 527.132 493.635 515.597C487.964 512.399 485.977 506.001 482.924 500.67C482.608 500.125 482.096 499.721 481.492 499.541C480.889 499.361 480.239 499.418 479.676 499.701L478.223 500.428C475.702 501.688 474.862 503.675 475.702 506.389C484.765 535.662 523.248 537.019 544.476 523.546C550.292 519.83 554.024 514.596 555.671 507.843C556.019 506.46 555.971 505.006 555.535 503.645C555.098 502.283 554.289 501.069 553.2 500.137L551.891 499.022C551.652 498.814 551.366 498.668 551.057 498.597C550.749 498.525 550.428 498.53 550.122 498.612C549.816 498.693 549.534 498.848 549.302 499.063C549.07 499.278 548.894 499.547 548.789 499.846ZM276.894 715.375C275.99 720.771 279.172 725.698 286.442 730.157C288.409 731.362 290.652 732.015 292.937 732.047C419.239 733.178 541.875 733.291 660.843 732.386C671.408 732.322 679.244 728.315 684.349 720.367C685.157 719.107 685.512 717.701 685.415 716.15C684.607 705.52 678.662 700.189 667.58 700.156C549.484 699.801 425.249 699.817 294.875 700.205C284.6 700.237 278.607 705.294 276.894 715.375ZM749.095 783.688C749.092 781.982 748.753 780.293 748.098 778.719C747.443 777.144 746.483 775.714 745.275 774.51C744.067 773.305 742.633 772.351 741.056 771.701C739.479 771.051 737.789 770.718 736.084 770.721L289.712 771.5C288.006 771.503 286.317 771.842 284.743 772.498C283.168 773.153 281.738 774.113 280.534 775.321C279.33 776.529 278.375 777.963 277.725 779.54C277.075 781.117 276.742 782.806 276.745 784.512L276.753 789.067C276.756 790.773 277.095 792.462 277.751 794.036C278.406 795.611 279.365 797.042 280.574 798.246C281.782 799.45 283.215 800.404 284.792 801.054C286.369 801.704 288.059 802.037 289.765 802.034L736.137 801.255C737.843 801.252 739.531 800.913 741.106 800.257C742.681 799.602 744.111 798.643 745.315 797.434C746.519 796.226 747.473 794.792 748.123 793.215C748.773 791.638 749.106 789.949 749.103 788.243L749.095 783.688ZM601.423 852.873C601.423 848.991 599.881 845.268 597.136 842.523C594.392 839.778 590.669 838.236 586.787 838.236H290.271C286.389 838.236 282.666 839.778 279.921 842.523C277.176 845.268 275.634 848.991 275.634 852.873V853.939C275.634 857.821 277.176 861.544 279.921 864.289C282.666 867.034 286.389 868.576 290.271 868.576H586.787C590.669 868.576 594.392 867.034 597.136 864.289C599.881 861.544 601.423 857.821 601.423 853.939V852.873Z" fill="#FAFAFA"/>
<path d="M825.539 226.341C797.816 227.116 760.109 231.72 745.424 200.993C737.282 184.03 741.741 159.457 740.674 140.119C740.648 139.772 740.73 139.425 740.908 139.126C741.086 138.826 741.352 138.589 741.67 138.446C741.987 138.303 742.341 138.262 742.684 138.327C743.026 138.392 743.34 138.561 743.582 138.811L827.089 222.415C829.577 224.935 829.06 226.244 825.539 226.341Z" fill="white"/>
<path d="M136.053 142.844H87.8773C85.7359 142.844 84 144.58 84 146.721V148.66C84 150.801 85.7359 152.537 87.8773 152.537H136.053C138.194 152.537 139.93 150.801 139.93 148.66V146.721C139.93 144.58 138.194 142.844 136.053 142.844Z" fill="#686868"/>
<path d="M180.061 305.98L180.303 847.007L134.939 777.41C95.6167 701.835 79.5583 621.107 86.7636 535.225C94.8736 449.505 125.973 373.09 180.061 305.98Z" fill="#BAC0FF"/>
<path d="M845.55 306.133C898.055 371.142 929.235 445.037 939.09 527.817C946.877 608.529 934.017 685.202 900.511 757.837C885.486 789.631 866.956 818.775 844.92 845.27L845.55 306.133Z" fill="#BAC0FF"/>
<path d="M685.181 399.463C666.279 401.547 642.24 396.749 634.631 377.072C633.661 374.552 634.34 372.597 636.666 371.208L638.072 370.384C638.403 370.178 638.773 370.042 639.158 369.985C639.543 369.927 639.937 369.949 640.313 370.049C640.69 370.148 641.042 370.324 641.349 370.565C641.655 370.806 641.909 371.107 642.095 371.45C652.272 389.867 669.914 389.818 688.089 390.4C690.221 390.465 691.029 391.515 690.512 393.55L690.124 395.101C689.478 397.686 687.83 399.14 685.181 399.463Z" fill="#686868"/>
<path d="M348.042 392.339C362.97 393.454 378.721 390.788 386.767 377.411C388.253 374.988 390.402 373.583 393.213 373.195C396.25 372.807 397.639 375.069 397.381 379.98C397.286 381.684 396.678 383.323 395.636 384.681C383.552 399.964 365.943 405.328 342.808 400.772C342.487 400.712 342.184 400.58 341.92 400.386C341.657 400.192 341.441 399.942 341.287 399.654C341.133 399.365 341.047 399.046 341.033 398.719C341.02 398.393 341.08 398.067 341.209 397.767L341.839 396.168C343.002 393.389 345.07 392.113 348.042 392.339Z" fill="#686868"/>
<path d="M632.643 441.805C632.689 455.135 641.559 465.91 652.453 465.872C663.347 465.834 672.141 454.997 672.094 441.667C672.047 428.337 663.178 417.562 652.284 417.6C641.39 417.638 632.596 428.475 632.643 441.805Z" fill="#686868"/>
<path d="M359.969 444.809C360.251 458.269 369.265 468.998 380.104 468.771C390.942 468.544 399.5 457.447 399.218 443.986C398.936 430.525 389.921 419.797 379.083 420.024C368.244 420.251 359.687 431.348 359.969 444.809Z" fill="#686868"/>
<path d="M354.178 507.699C375.11 507.735 392.091 500.496 392.107 491.529C392.122 482.562 375.166 475.263 354.234 475.226C333.303 475.19 316.321 482.429 316.306 491.396C316.29 500.363 333.246 507.662 354.178 507.699Z" fill="#E6E8FF"/>
<path d="M678.274 507.153C699.954 506.851 717.429 499.51 717.307 490.758C717.185 482.006 699.511 475.157 677.832 475.46C656.153 475.762 638.677 483.103 638.799 491.855C638.922 500.607 656.595 507.456 678.274 507.153Z" fill="#E6E8FF"/>
<path d="M493.64 515.59C513.754 527.125 540.119 523.829 548.795 499.838C548.899 499.539 549.075 499.271 549.307 499.055C549.54 498.84 549.821 498.685 550.127 498.604C550.433 498.523 550.754 498.518 551.063 498.589C551.371 498.661 551.657 498.807 551.896 499.014L553.205 500.129C554.295 501.061 555.103 502.276 555.54 503.637C555.977 504.999 556.024 506.452 555.677 507.835C554.029 514.588 550.297 519.823 544.481 523.538C523.253 537.012 484.771 535.655 475.708 506.381C474.868 503.667 475.708 501.68 478.228 500.42L479.682 499.693C480.245 499.41 480.894 499.353 481.498 499.533C482.101 499.714 482.613 500.117 482.929 500.662C485.982 505.994 487.97 512.391 493.64 515.59Z" fill="#686868"/>
<path d="M276.898 715.376C278.611 705.295 284.604 700.238 294.879 700.206C425.253 699.818 549.488 699.802 667.584 700.157C678.666 700.19 684.611 705.521 685.419 716.151C685.516 717.702 685.161 719.108 684.353 720.368C679.248 728.316 671.412 732.323 660.847 732.387C541.879 733.292 419.243 733.179 292.941 732.048C290.656 732.016 288.413 731.363 286.446 730.158C279.176 725.699 275.994 720.772 276.898 715.376Z" fill="#E6E8FF"/>
<path d="M736.09 770.718L289.717 771.497C282.544 771.509 276.739 777.335 276.751 784.508L276.759 789.064C276.772 796.238 282.597 802.043 289.771 802.03L736.143 801.251C743.316 801.239 749.122 795.413 749.109 788.24L749.101 783.684C749.089 776.51 743.263 770.705 736.09 770.718Z" fill="#E6E8FF"/>
<path d="M586.791 838.238H290.275C282.192 838.238 275.639 844.791 275.639 852.875V853.941C275.639 862.025 282.192 868.578 290.275 868.578H586.791C594.875 868.578 601.428 862.025 601.428 853.941V852.875C601.428 844.791 594.875 838.238 586.791 838.238Z" fill="#E6E8FF"/>
</svg>
