<svg width="512" height="512" viewBox="0 0 512 512" fill="none" xmlns="http://www.w3.org/2000/svg">
<g clip-path="url(#clip0_649_2505)">
<path d="M68.6934 472.345C76.0404 495.336 97.3524 512.011 122.444 512.011H389.587C414.678 512.011 435.99 495.336 443.337 472.345H68.6934ZM429.537 82.2758L363.825 16.5638C361.149 13.8865 358.214 11.4811 355.063 9.38281V90.6778C355.066 91.5676 355.421 92.42 356.051 93.0482C356.681 93.6764 357.535 94.0291 358.424 94.0288H438.569C436.129 89.7768 433.098 85.8368 429.537 82.2758Z" fill="#2A2A2B"/>
<path d="M446.053 124.023H358.397C339.994 124.023 325.031 109.06 325.031 90.667V0.02C324.641 0 324.241 0 323.851 0H122.414C91.2678 0 65.9238 25.345 65.9238 56.5V210.598H446.054L446.053 124.023ZM256.528 306.896H242.807V377.658H256.528C265.778 377.658 270.403 372.52 270.403 362.241V322.313C270.402 312.037 265.777 306.896 256.528 306.896ZM170.352 306.896H155.09V339.424H170.352C179.602 339.424 184.228 334.286 184.228 324.007V322.312C184.226 312.037 179.601 306.896 170.352 306.896Z" fill="#2A2A2B"/>
<path d="M448.018 240.617H63.9831C43.0821 240.617 26.0781 257.621 26.0781 278.522V404.434C26.0781 425.335 43.0821 442.339 63.9831 442.339H448.017C468.918 442.339 485.923 425.335 485.923 404.434V278.522C485.923 257.621 468.919 240.617 448.018 240.617ZM208.289 322.17C208.289 334.402 204.819 343.421 197.882 349.226C190.945 355.033 181.772 357.936 170.364 357.936H155.102V391.235C155.102 393.6 153.919 395.424 151.556 396.708C149.191 397.994 146.365 398.635 143.077 398.635C139.786 398.635 136.961 397.994 134.597 396.708C132.232 395.424 131.051 393.6 131.051 391.235V293.186C131.051 291.235 131.872 289.539 133.517 288.099C135.16 286.661 137.318 285.941 139.992 285.941H171.904C182.9 285.941 191.715 288.793 198.343 294.498C204.972 300.202 208.287 309.17 208.287 321.399V322.17H208.289ZM294.464 362.254C294.464 374.794 291.019 383.991 284.135 389.849C277.248 395.707 268.049 398.637 256.54 398.637H229.253C226.169 398.637 223.65 397.919 221.699 396.479C219.746 395.041 218.769 393.345 218.769 391.391V293.188C218.769 291.237 219.745 289.541 221.699 288.101C223.65 286.663 226.17 285.943 229.253 285.943H256.54C268.049 285.943 277.249 288.873 284.135 294.731C291.019 300.589 294.464 309.789 294.464 322.326V362.254ZM379.022 303.826C377.736 305.883 375.962 306.91 373.704 306.91H333.776V332.964H357.054C359.313 332.964 361.087 333.889 362.373 335.738C363.657 337.588 364.3 339.8 364.3 342.367C364.3 344.732 363.683 346.838 362.45 348.688C361.217 350.538 359.417 351.462 357.054 351.462H333.776V391.236C333.776 393.601 332.593 395.425 330.23 396.709C327.865 397.995 325.039 398.636 321.751 398.636C318.46 398.636 315.635 397.995 313.271 396.709C310.906 395.425 309.725 393.601 309.725 391.236V293.342C309.725 290.979 310.751 289.155 312.809 287.869C314.863 286.585 317.331 285.942 320.208 285.942H373.703C376.065 285.942 377.866 286.97 379.099 289.026C380.332 291.083 380.949 293.497 380.949 296.272C380.948 299.253 380.305 301.77 379.022 303.826Z" fill="#2A2A2B"/>
</g>
<defs>
<clipPath id="clip0_649_2505">
<rect width="512" height="512" fill="white"/>
</clipPath>
</defs>
</svg>
