<svg width="1024" height="1025" viewBox="0 0 1024 1025" fill="none" xmlns="http://www.w3.org/2000/svg">
<path d="M411.999 328.896H378.665V295.563C378.665 281.756 367.472 270.562 353.665 270.562C339.859 270.562 328.665 281.756 328.665 295.563V328.896H295.332C281.525 328.896 270.332 340.089 270.332 353.896C270.332 367.703 281.525 378.896 295.332 378.896H328.665V412.229C328.665 426.036 339.859 437.229 353.665 437.229C367.472 437.229 378.665 426.036 378.665 412.229V378.896H411.999C425.805 378.896 436.999 367.703 436.999 353.896C436.999 340.089 425.805 328.896 411.999 328.896Z" fill="#4153FF"/>
<path d="M913.665 85.6719H110.332C96.5254 85.6719 85.332 96.8652 85.332 110.672V914.005C85.332 927.617 96.4254 939.005 110.327 939.005H913.665C927.472 939.005 938.665 927.812 938.665 914.005V110.672C938.665 96.7485 927.24 85.6719 913.665 85.6719ZM728.665 695.672H611.999C598.192 695.672 586.999 684.479 586.999 670.672C586.999 656.865 598.192 645.672 611.999 645.672H728.665C742.472 645.672 753.665 656.865 753.665 670.672C753.665 684.479 742.472 695.672 728.665 695.672ZM135.332 853.65V135.672H853.31L135.332 853.65Z" fill="#4153FF"/>
</svg>
