<svg width="1024" height="1025" viewBox="0 0 1024 1025" fill="none" xmlns="http://www.w3.org/2000/svg">
<path d="M830.332 135.445H888.665V193.779C888.665 207.595 899.849 218.779 913.665 218.779C927.482 218.779 938.665 207.595 938.665 193.779V110.445C938.665 96.6386 927.472 85.4453 913.665 85.4453H830.332C816.525 85.4453 805.332 96.6386 805.332 110.445C805.332 124.252 816.525 135.445 830.332 135.445ZM888.665 405.995V618.229C888.665 632.012 899.882 643.229 913.665 643.229C927.449 643.229 938.665 632.012 938.665 618.229V405.995C938.665 392.212 927.449 380.995 913.665 380.995C899.882 380.995 888.665 392.212 888.665 405.995ZM888.665 830.445V888.779H830.332C829.469 888.779 828.617 888.822 827.777 888.907C827.347 888.95 826.932 889.035 826.509 889.1C826.104 889.162 825.692 889.204 825.295 889.285C824.832 889.38 824.385 889.515 823.932 889.635C823.589 889.725 823.237 889.795 822.9 889.9C822.524 890.017 822.164 890.17 821.794 890.305C821.397 890.45 820.99 890.577 820.604 890.74C820.389 890.832 820.187 890.947 819.975 891.044C819.45 891.284 818.922 891.52 818.417 891.794C818.365 891.822 818.319 891.855 818.269 891.884C811.265 895.75 806.309 902.872 805.462 911.22C805.375 912.07 805.332 912.924 805.332 913.779C805.332 927.585 816.525 938.779 830.332 938.779H913.665C927.472 938.779 938.665 927.585 938.665 913.779V830.445C938.665 816.639 927.472 805.445 913.665 805.445C899.859 805.445 888.665 816.639 888.665 830.445ZM618.115 888.779H516.729V532.382C516.729 518.575 505.535 507.382 491.729 507.382H135.332V405.995C135.332 392.212 124.115 380.995 110.332 380.995C96.5487 380.995 85.332 392.212 85.332 405.995V913.779C85.332 927.585 96.5254 938.779 110.332 938.779H618.115C631.899 938.779 643.115 927.562 643.115 913.779C643.115 899.995 631.899 888.779 618.115 888.779ZM135.332 193.779V135.445H193.665C207.472 135.445 218.665 124.252 218.665 110.445C218.665 96.6386 207.472 85.4453 193.665 85.4453H110.332C96.5254 85.4453 85.332 96.6386 85.332 110.445V193.779C85.332 207.585 96.5254 218.779 110.332 218.779C124.139 218.779 135.332 207.585 135.332 193.779ZM405.882 135.445H618.115C631.899 135.445 643.115 124.229 643.115 110.445C643.115 96.662 631.899 85.4453 618.115 85.4453H405.882C392.099 85.4453 380.882 96.662 380.882 110.445C380.882 124.229 392.099 135.445 405.882 135.445ZM560.282 428.474C555.4 433.355 552.959 439.754 552.959 446.15C552.959 452.547 555.399 458.947 560.282 463.827C570.045 473.59 585.874 473.59 595.637 463.827L768.717 290.747V348.205C768.717 362.012 779.91 373.205 793.717 373.205C807.524 373.205 818.717 362.012 818.717 348.205V230.394C818.717 216.587 807.524 205.394 793.717 205.394H675.904C662.097 205.394 650.904 216.587 650.904 230.394C650.904 244.2 662.097 255.394 675.904 255.394H733.362L560.282 428.474Z" fill="#4153FF"/>
</svg>
