<svg width="1024" height="1025" viewBox="0 0 1024 1025" fill="none" xmlns="http://www.w3.org/2000/svg">
<path d="M127.999 939.224H255.999C267.315 939.224 278.167 934.729 286.169 926.727C294.17 918.726 298.665 907.873 298.665 896.557C298.665 885.241 294.17 874.389 286.169 866.387C278.167 858.386 267.315 853.891 255.999 853.891H170.665V171.224H255.999C267.315 171.224 278.167 166.729 286.169 158.727C294.17 150.726 298.665 139.873 298.665 128.557C298.665 117.241 294.17 106.389 286.169 98.3874C278.167 90.3858 267.315 85.8906 255.999 85.8906H127.999C116.683 85.8906 105.83 90.3858 97.8288 98.3874C89.8273 106.389 85.332 117.241 85.332 128.557V896.557C85.332 907.873 89.8273 918.726 97.8288 926.727C105.83 934.729 116.683 939.224 127.999 939.224ZM895.999 85.8906H767.999C756.683 85.8906 745.83 90.3858 737.829 98.3874C729.827 106.389 725.332 117.241 725.332 128.557C725.332 139.873 729.827 150.726 737.829 158.727C745.83 166.729 756.683 171.224 767.999 171.224H853.332V853.891H767.999C756.683 853.891 745.83 858.386 737.829 866.387C729.827 874.389 725.332 885.241 725.332 896.557C725.332 907.873 729.827 918.726 737.829 926.727C745.83 934.729 756.683 939.224 767.999 939.224H895.999C907.315 939.224 918.167 934.729 926.169 926.727C934.17 918.726 938.665 907.873 938.665 896.557V128.557C938.665 117.241 934.17 106.389 926.169 98.3874C918.167 90.3858 907.315 85.8906 895.999 85.8906Z" fill="#4153FF"/>
<path d="M341.332 469.891C412.024 469.891 469.332 412.583 469.332 341.891C469.332 271.198 412.024 213.891 341.332 213.891C270.64 213.891 213.332 271.198 213.332 341.891C213.332 412.583 270.64 469.891 341.332 469.891Z" fill="#4153FF"/>
<path d="M341.332 811.227C412.024 811.227 469.332 753.919 469.332 683.227C469.332 612.534 412.024 555.227 341.332 555.227C270.64 555.227 213.332 612.534 213.332 683.227C213.332 753.919 270.64 811.227 341.332 811.227Z" fill="#4153FF"/>
<path d="M682.666 469.891C753.358 469.891 810.666 412.583 810.666 341.891C810.666 271.198 753.358 213.891 682.666 213.891C611.974 213.891 554.666 271.198 554.666 341.891C554.666 412.583 611.974 469.891 682.666 469.891Z" fill="#4153FF"/>
<path d="M682.666 811.227C753.358 811.227 810.666 753.919 810.666 683.227C810.666 612.534 753.358 555.227 682.666 555.227C611.974 555.227 554.666 612.534 554.666 683.227C554.666 753.919 611.974 811.227 682.666 811.227Z" fill="#4153FF"/>
</svg>
