<svg width="1024" height="1025" viewBox="0 0 1024 1025" fill="none" xmlns="http://www.w3.org/2000/svg">
<path d="M458.668 396.223H565.335V502.889H458.668V396.223Z" fill="#4153FF"/>
<path d="M67.5566 876.223C67.5566 905.677 91.4358 929.556 120.89 929.556H903.112C932.566 929.556 956.446 905.677 956.446 876.223V396.223H672.001V556.223C672.001 585.677 648.122 609.556 618.668 609.556H405.334C375.88 609.556 352.001 585.677 352.001 556.223V396.223H67.5566V876.223ZM882.597 112.692C879.057 102.073 872.266 92.8359 863.185 86.2906C854.105 79.7452 843.195 76.2229 832.001 76.2227H192.001C180.807 76.2229 169.897 79.7452 160.817 86.2906C151.736 92.8359 144.945 102.073 141.406 112.692L82.4473 289.556H941.551L882.597 112.692Z" fill="#4153FF"/>
</svg>
