<svg width="1024" height="1025" viewBox="0 0 1024 1025" fill="none" xmlns="http://www.w3.org/2000/svg">
<g clip-path="url(#clip0_649_2565)">
<path d="M934.111 413.912H610.645V90.4453C610.645 36.0265 566.53 -8.08802 512.111 -8.08802C457.693 -8.08802 413.578 36.0265 413.578 90.4453V413.912H90.1113C35.6925 413.912 -8.42201 458.026 -8.42201 512.445C-8.42201 566.864 35.6925 610.979 90.1113 610.979H413.578V934.445C413.578 988.864 457.693 1032.98 512.111 1032.98C566.53 1032.98 610.645 988.864 610.645 934.445V610.979H934.111C988.53 610.979 1032.64 566.864 1032.64 512.445C1032.64 458.026 988.53 413.912 934.111 413.912Z" fill="#4153FF" stroke="#4153FF" stroke-width="17.0667"/>
</g>
<defs>
<clipPath id="clip0_649_2565">
<rect width="1024" height="1024" fill="white" transform="translate(0 0.445312)"/>
</clipPath>
</defs>
</svg>
