<svg width="1694" height="501" viewBox="0 0 1694 501" fill="none" xmlns="http://www.w3.org/2000/svg">
<path fill-rule="evenodd" clip-rule="evenodd" d="M493.284 196.832C488.634 195.857 483.813 195.344 478.873 195.344C440.295 195.344 409.021 226.618 409.021 265.197C409.021 303.775 440.295 335.05 478.873 335.05C480.76 335.05 482.629 334.975 484.479 334.828C449.88 431.407 357.538 500.5 249.059 500.5C180.498 500.5 118.383 472.901 73.2179 428.207C97.4578 435.367 123.204 438.08 149.389 436.1C162.47 435.111 172.074 433.431 178.2 431.059C201.095 422.254 208.351 395.057 194.217 375.507C189.151 368.515 182.622 363.987 174.631 361.923C170.489 360.842 163.191 361.001 152.737 362.4C105.552 368.693 65.6633 354.424 33.0714 319.594C8.92814 290.472 -1.86123 258.298 0.703381 223.071C0.854226 221.005 1.05289 218.946 1.29842 216.898C1.66309 214.184 2.07133 211.483 2.5224 208.797C9.40784 171.074 32.2318 137.648 64.8263 118.976C128.933 82.2033 205.001 101.904 244.679 163.361C257.671 185.306 264.975 211.308 263.73 236.868C262.948 252.844 269.648 267.778 284.667 274.388C295.033 278.944 305.086 279.101 314.827 274.858C328.237 269.028 335.305 258.447 336.032 243.116C338.481 190.718 323.579 144.289 291.325 103.833C251.367 54.4891 193.514 28.8699 135.295 27.825C169.42 10.3555 208.088 0.5 249.059 0.5C368.707 0.5 468.723 84.5523 493.284 196.832ZM163.199 260.963L164.526 259.46C177.462 244.801 201.85 245.186 218.999 260.319L323.453 352.5C340.602 367.634 344.016 391.785 331.08 406.444L329.754 407.947C316.818 422.606 292.429 422.221 275.281 407.088L170.826 314.907C153.678 299.773 150.263 275.622 163.199 260.963Z" fill="#4153FF"/>
<ellipse cx="478.856" cy="265.178" rx="55.1469" ry="55.1471" fill="#2A2A2B"/>
<path d="M665.715 201.229H693.594L707.609 219.259L721.397 235.319L747.382 267.895H716.776L698.897 245.926L689.73 232.895L665.715 201.229ZM749.73 177.592C749.73 194.511 746.523 208.905 740.109 220.774C733.746 232.643 725.059 241.708 714.049 247.971C703.089 254.183 690.766 257.289 677.079 257.289C663.291 257.289 650.917 254.158 639.958 247.895C628.998 241.633 620.337 232.567 613.973 220.698C607.609 208.83 604.427 194.461 604.427 177.592C604.427 160.673 607.609 146.279 613.973 134.41C620.337 122.542 628.998 113.501 639.958 107.289C650.917 101.027 663.291 97.8954 677.079 97.8954C690.766 97.8954 703.089 101.027 714.049 107.289C725.059 113.501 733.746 122.542 740.109 134.41C746.523 146.279 749.73 160.673 749.73 177.592ZM716.473 177.592C716.473 166.633 714.831 157.39 711.549 149.865C708.316 142.34 703.746 136.633 697.837 132.744C691.927 128.855 685.008 126.91 677.079 126.91C669.15 126.91 662.23 128.855 656.321 132.744C650.412 136.633 645.816 142.34 642.534 149.865C639.301 157.39 637.685 166.633 637.685 177.592C637.685 188.552 639.301 197.794 642.534 205.32C645.816 212.845 650.412 218.552 656.321 222.441C662.23 226.33 669.15 228.274 677.079 228.274C685.008 228.274 691.927 226.33 697.837 222.441C703.746 218.552 708.316 212.845 711.549 205.32C714.831 197.794 716.473 188.552 716.473 177.592ZM839.511 205.623V138.804H871.784V255.168H840.799V234.032H839.587C836.961 240.85 832.592 246.33 826.481 250.471C820.421 254.612 813.022 256.683 804.284 256.683C796.506 256.683 789.663 254.915 783.754 251.38C777.845 247.845 773.224 242.819 769.89 236.304C766.607 229.789 764.941 221.986 764.89 212.895V138.804H797.163V207.138C797.213 214.006 799.057 219.436 802.693 223.426C806.33 227.415 811.203 229.41 817.314 229.41C821.203 229.41 824.84 228.527 828.224 226.759C831.607 224.941 834.335 222.264 836.405 218.729C838.527 215.193 839.562 210.825 839.511 205.623ZM922.247 257.365C914.823 257.365 908.207 256.077 902.398 253.501C896.59 250.875 891.994 247.011 888.611 241.91C885.277 236.759 883.611 230.345 883.611 222.668C883.611 216.203 884.797 210.774 887.171 206.38C889.545 201.986 892.777 198.451 896.868 195.774C900.959 193.097 905.606 191.077 910.808 189.713C916.06 188.35 921.565 187.39 927.323 186.835C934.09 186.128 939.545 185.471 943.686 184.865C947.828 184.208 950.833 183.249 952.701 181.986C954.57 180.724 955.504 178.855 955.504 176.38V175.926C955.504 171.128 953.989 167.416 950.959 164.789C947.979 162.163 943.737 160.85 938.232 160.85C932.424 160.85 927.802 162.138 924.368 164.713C920.934 167.239 918.661 170.421 917.55 174.259L887.702 171.835C889.217 164.764 892.196 158.653 896.641 153.501C901.085 148.299 906.818 144.309 913.838 141.532C920.909 138.703 929.09 137.289 938.383 137.289C944.848 137.289 951.035 138.047 956.944 139.562C962.903 141.077 968.181 143.426 972.777 146.607C977.424 149.789 981.085 153.88 983.762 158.88C986.439 163.83 987.777 169.764 987.777 176.683V255.168H957.171V239.032H956.262C954.393 242.668 951.893 245.875 948.762 248.653C945.631 251.38 941.868 253.527 937.474 255.092C933.08 256.607 928.005 257.365 922.247 257.365ZM931.489 235.092C936.237 235.092 940.429 234.158 944.065 232.289C947.701 230.37 950.555 227.794 952.626 224.562C954.696 221.33 955.732 217.668 955.732 213.577V201.229C954.722 201.885 953.333 202.491 951.565 203.047C949.848 203.552 947.903 204.032 945.732 204.486C943.56 204.89 941.388 205.269 939.217 205.623C937.045 205.926 935.075 206.203 933.308 206.456C929.52 207.011 926.212 207.895 923.383 209.107C920.555 210.32 918.358 211.961 916.792 214.032C915.227 216.052 914.444 218.577 914.444 221.607C914.444 226.001 916.035 229.36 919.217 231.683C922.449 233.956 926.54 235.092 931.489 235.092ZM1066.18 138.804V163.047H996.1V138.804H1066.18ZM1012.01 110.926H1044.28V219.41C1044.28 222.39 1044.74 224.713 1045.65 226.38C1046.55 227.996 1047.82 229.133 1049.43 229.789C1051.1 230.446 1053.02 230.774 1055.19 230.774C1056.71 230.774 1058.22 230.648 1059.74 230.395C1061.25 230.092 1062.41 229.865 1063.22 229.713L1068.3 253.729C1066.68 254.234 1064.41 254.814 1061.48 255.471C1058.55 256.178 1054.99 256.607 1050.8 256.759C1043.02 257.062 1036.2 256.027 1030.34 253.653C1024.53 251.279 1020.01 247.592 1016.78 242.592C1013.55 237.592 1011.96 231.279 1012.01 223.653V110.926ZM1130.45 257.441C1118.48 257.441 1108.17 255.016 1099.54 250.168C1090.95 245.269 1084.33 238.35 1079.69 229.41C1075.04 220.421 1072.72 209.789 1072.72 197.516C1072.72 185.547 1075.04 175.042 1079.69 166.001C1084.33 156.961 1090.87 149.916 1099.31 144.865C1107.79 139.815 1117.74 137.289 1129.16 137.289C1136.83 137.289 1143.98 138.527 1150.6 141.001C1157.26 143.426 1163.07 147.087 1168.02 151.986C1173.02 156.885 1176.91 163.047 1179.69 170.471C1182.47 177.845 1183.85 186.481 1183.85 196.38V205.244H1085.6V185.244H1153.48C1153.48 180.597 1152.47 176.481 1150.45 172.895C1148.43 169.309 1145.62 166.506 1142.04 164.486C1138.5 162.416 1134.38 161.38 1129.69 161.38C1124.79 161.38 1120.45 162.517 1116.66 164.789C1112.92 167.011 1109.99 170.017 1107.87 173.804C1105.75 177.542 1104.66 181.708 1104.61 186.304V205.32C1104.61 211.077 1105.67 216.052 1107.79 220.244C1109.97 224.436 1113.02 227.668 1116.96 229.941C1120.9 232.213 1125.57 233.35 1130.98 233.35C1134.56 233.35 1137.84 232.845 1140.82 231.835C1143.8 230.825 1146.35 229.309 1148.48 227.289C1150.6 225.269 1152.21 222.794 1153.32 219.865L1183.17 221.835C1181.66 229.006 1178.55 235.269 1173.85 240.623C1169.21 245.926 1163.2 250.067 1155.82 253.047C1148.5 255.976 1140.04 257.441 1130.45 257.441ZM1196.38 255.168V138.804H1227.67V159.107H1228.88C1231 151.885 1234.56 146.431 1239.56 142.744C1244.56 139.006 1250.32 137.138 1256.84 137.138C1258.45 137.138 1260.19 137.239 1262.06 137.441C1263.93 137.643 1265.57 137.921 1266.99 138.274V166.91C1265.47 166.456 1263.38 166.052 1260.7 165.698C1258.02 165.345 1255.57 165.168 1253.35 165.168C1248.6 165.168 1244.36 166.203 1240.62 168.274C1236.94 170.294 1234.01 173.123 1231.84 176.759C1229.71 180.395 1228.65 184.587 1228.65 189.335V255.168H1196.38ZM1307.41 187.895V255.168H1275.14V138.804H1305.9V159.335H1307.26C1309.84 152.567 1314.16 147.213 1320.22 143.274C1326.28 139.284 1333.62 137.289 1342.26 137.289C1350.34 137.289 1357.39 139.057 1363.4 142.592C1369.41 146.128 1374.08 151.178 1377.41 157.744C1380.75 164.259 1382.41 172.037 1382.41 181.077V255.168H1350.14V186.835C1350.19 179.713 1348.37 174.158 1344.69 170.168C1341 166.128 1335.92 164.107 1329.46 164.107C1325.11 164.107 1321.28 165.042 1317.94 166.91C1314.66 168.779 1312.08 171.506 1310.22 175.092C1308.4 178.628 1307.46 182.895 1307.41 187.895ZM1399.31 255.168V138.804H1431.59V255.168H1399.31ZM1415.53 123.804C1410.73 123.804 1406.61 122.214 1403.18 119.032C1399.79 115.799 1398.1 111.936 1398.1 107.441C1398.1 102.996 1399.79 99.1832 1403.18 96.0014C1406.61 92.7691 1410.73 91.1529 1415.53 91.1529C1420.32 91.1529 1424.42 92.7691 1427.8 96.0014C1431.23 99.1832 1432.95 102.996 1432.95 107.441C1432.95 111.936 1431.23 115.799 1427.8 119.032C1424.42 122.214 1420.32 123.804 1415.53 123.804ZM1501.48 257.441C1489.71 257.441 1479.54 254.941 1470.95 249.941C1462.42 244.89 1455.83 237.87 1451.18 228.88C1446.53 219.84 1444.21 209.36 1444.21 197.441C1444.21 185.421 1446.53 174.915 1451.18 165.926C1455.83 156.885 1462.42 149.865 1470.95 144.865C1479.54 139.815 1489.71 137.289 1501.48 137.289C1513.25 137.289 1523.4 139.815 1531.94 144.865C1540.52 149.865 1547.14 156.885 1551.79 165.926C1556.43 174.915 1558.75 185.421 1558.75 197.441C1558.75 209.36 1556.43 219.84 1551.79 228.88C1547.14 237.87 1540.52 244.89 1531.94 249.941C1523.4 254.941 1513.25 257.441 1501.48 257.441ZM1501.63 232.441C1506.99 232.441 1511.46 230.926 1515.04 227.895C1518.63 224.814 1521.33 220.623 1523.15 215.32C1525.02 210.016 1525.95 203.981 1525.95 197.213C1525.95 190.446 1525.02 184.41 1523.15 179.107C1521.33 173.804 1518.63 169.612 1515.04 166.532C1511.46 163.451 1506.99 161.91 1501.63 161.91C1496.23 161.91 1491.68 163.451 1488 166.532C1484.36 169.612 1481.61 173.804 1479.74 179.107C1477.92 184.41 1477.01 190.446 1477.01 197.213C1477.01 203.981 1477.92 210.016 1479.74 215.32C1481.61 220.623 1484.36 224.814 1488 227.895C1491.68 230.926 1496.23 232.441 1501.63 232.441ZM1603.48 187.895V255.168H1571.21V138.804H1601.96V159.335H1603.33C1605.9 152.567 1610.22 147.213 1616.28 143.274C1622.34 139.284 1629.69 137.289 1638.33 137.289C1646.41 137.289 1653.45 139.057 1659.46 142.592C1665.47 146.128 1670.15 151.178 1673.48 157.744C1676.81 164.259 1678.48 172.037 1678.48 181.077V255.168H1646.21V186.835C1646.26 179.713 1644.44 174.158 1640.75 170.168C1637.06 166.128 1631.99 164.107 1625.52 164.107C1621.18 164.107 1617.34 165.042 1614.01 166.91C1610.73 168.779 1608.15 171.506 1606.28 175.092C1604.46 178.628 1603.53 182.895 1603.48 187.895ZM744.049 341.335H710.867C710.261 337.042 709.023 333.229 707.155 329.895C705.286 326.511 702.887 323.633 699.958 321.259C697.028 318.885 693.645 317.067 689.806 315.804C686.018 314.542 681.902 313.91 677.458 313.91C669.427 313.91 662.432 315.905 656.473 319.895C650.513 323.835 645.892 329.592 642.609 337.168C639.326 344.693 637.685 353.835 637.685 364.592C637.685 375.653 639.326 384.946 642.609 392.471C645.943 399.996 650.589 405.678 656.549 409.516C662.508 413.355 669.402 415.274 677.23 415.274C681.624 415.274 685.69 414.693 689.427 413.532C693.215 412.37 696.574 410.678 699.503 408.456C702.432 406.183 704.857 403.431 706.776 400.198C708.746 396.966 710.109 393.279 710.867 389.138L744.049 389.289C743.19 396.41 741.044 403.279 737.609 409.895C734.225 416.461 729.655 422.345 723.897 427.547C718.19 432.698 711.372 436.789 703.443 439.819C695.564 442.799 686.65 444.289 676.7 444.289C662.862 444.289 650.488 441.158 639.579 434.895C628.72 428.633 620.135 419.567 613.821 407.698C607.559 395.83 604.427 381.461 604.427 364.592C604.427 347.673 607.609 333.279 613.973 321.41C620.337 309.542 628.973 300.501 639.882 294.289C650.791 288.027 663.064 284.895 676.7 284.895C685.69 284.895 694.023 286.158 701.7 288.683C709.427 291.208 716.271 294.895 722.23 299.744C728.19 304.542 733.039 310.426 736.776 317.395C740.564 324.365 742.988 332.345 744.049 341.335ZM791.614 444.365C784.189 444.365 777.573 443.077 771.765 440.501C765.957 437.875 761.361 434.011 757.977 428.91C754.644 423.759 752.977 417.345 752.977 409.668C752.977 403.203 754.164 397.774 756.538 393.38C758.912 388.986 762.144 385.451 766.235 382.774C770.326 380.097 774.972 378.077 780.174 376.713C785.427 375.35 790.932 374.39 796.689 373.835C803.457 373.128 808.912 372.471 813.053 371.865C817.195 371.208 820.2 370.249 822.068 368.986C823.937 367.724 824.871 365.855 824.871 363.38V362.926C824.871 358.128 823.356 354.416 820.326 351.789C817.346 349.163 813.104 347.85 807.599 347.85C801.79 347.85 797.169 349.138 793.735 351.713C790.301 354.239 788.028 357.421 786.917 361.259L757.068 358.835C758.583 351.764 761.563 345.653 766.008 340.501C770.452 335.299 776.184 331.309 783.205 328.532C790.275 325.703 798.457 324.289 807.75 324.289C814.215 324.289 820.402 325.047 826.311 326.562C832.27 328.077 837.548 330.426 842.144 333.607C846.79 336.789 850.452 340.88 853.129 345.88C855.806 350.83 857.144 356.764 857.144 363.683V442.168H826.538V426.032H825.629C823.76 429.668 821.26 432.875 818.129 435.653C814.998 438.38 811.235 440.527 806.841 442.092C802.447 443.607 797.371 444.365 791.614 444.365ZM800.856 422.092C805.604 422.092 809.796 421.158 813.432 419.289C817.068 417.37 819.922 414.794 821.992 411.562C824.063 408.33 825.099 404.668 825.099 400.577V388.229C824.088 388.885 822.7 389.491 820.932 390.047C819.215 390.552 817.27 391.032 815.099 391.486C812.927 391.89 810.755 392.269 808.583 392.623C806.412 392.926 804.442 393.203 802.674 393.456C798.886 394.011 795.578 394.895 792.75 396.107C789.922 397.32 787.725 398.961 786.159 401.032C784.594 403.052 783.811 405.577 783.811 408.607C783.811 413.001 785.402 416.36 788.583 418.683C791.816 420.956 795.907 422.092 800.856 422.092ZM905.921 287.017V442.168H873.648V287.017H905.921ZM975.816 444.441C963.897 444.441 953.644 441.915 945.058 436.865C936.523 431.764 929.957 424.693 925.361 415.653C920.816 406.612 918.543 396.208 918.543 384.441C918.543 372.522 920.841 362.067 925.437 353.077C930.084 344.037 936.674 336.991 945.21 331.941C953.745 326.84 963.897 324.289 975.664 324.289C985.816 324.289 994.705 326.133 1002.33 329.82C1009.96 333.506 1015.99 338.683 1020.44 345.35C1024.88 352.017 1027.33 359.845 1027.79 368.835H997.331C996.472 363.027 994.2 358.355 990.513 354.82C986.876 351.234 982.104 349.441 976.195 349.441C971.195 349.441 966.826 350.804 963.089 353.532C959.402 356.208 956.523 360.123 954.452 365.274C952.382 370.426 951.346 376.663 951.346 383.986C951.346 391.41 952.356 397.724 954.376 402.926C956.447 408.128 959.351 412.092 963.089 414.82C966.826 417.547 971.195 418.91 976.195 418.91C979.882 418.91 983.19 418.153 986.119 416.638C989.099 415.123 991.548 412.926 993.467 410.047C995.437 407.117 996.725 403.607 997.331 399.516H1027.79C1027.28 408.405 1024.86 416.234 1020.51 423.001C1016.22 429.718 1010.29 434.971 1002.71 438.759C995.134 442.547 986.169 444.441 975.816 444.441ZM1114.54 392.623V325.804H1146.81V442.168H1115.82V421.032H1114.61C1111.99 427.85 1107.62 433.33 1101.51 437.471C1095.45 441.612 1088.05 443.683 1079.31 443.683C1071.53 443.683 1064.69 441.915 1058.78 438.38C1052.87 434.845 1048.25 429.819 1044.92 423.304C1041.63 416.789 1039.97 408.986 1039.92 399.895V325.804H1072.19V394.138C1072.24 401.006 1074.08 406.436 1077.72 410.426C1081.35 414.415 1086.23 416.41 1092.34 416.41C1096.23 416.41 1099.86 415.527 1103.25 413.759C1106.63 411.941 1109.36 409.264 1111.43 405.729C1113.55 402.193 1114.59 397.825 1114.54 392.623ZM1196.36 287.017V442.168H1164.09V287.017H1196.36ZM1246.86 444.365C1239.44 444.365 1232.82 443.077 1227.01 440.501C1221.21 437.875 1216.61 434.011 1213.23 428.91C1209.89 423.759 1208.23 417.345 1208.23 409.668C1208.23 403.203 1209.41 397.774 1211.79 393.38C1214.16 388.986 1217.39 385.451 1221.48 382.774C1225.58 380.097 1230.22 378.077 1235.42 376.713C1240.68 375.35 1246.18 374.39 1251.94 373.835C1258.71 373.128 1264.16 372.471 1268.3 371.865C1272.44 371.208 1275.45 370.249 1277.32 368.986C1279.19 367.724 1280.12 365.855 1280.12 363.38V362.926C1280.12 358.128 1278.61 354.416 1275.58 351.789C1272.6 349.163 1268.35 347.85 1262.85 347.85C1257.04 347.85 1252.42 349.138 1248.98 351.713C1245.55 354.239 1243.28 357.421 1242.17 361.259L1212.32 358.835C1213.83 351.764 1216.81 345.653 1221.26 340.501C1225.7 335.299 1231.43 331.309 1238.45 328.532C1245.52 325.703 1253.71 324.289 1263 324.289C1269.46 324.289 1275.65 325.047 1281.56 326.562C1287.52 328.077 1292.8 330.426 1297.39 333.607C1302.04 336.789 1305.7 340.88 1308.38 345.88C1311.06 350.83 1312.39 356.764 1312.39 363.683V442.168H1281.79V426.032H1280.88C1279.01 429.668 1276.51 432.875 1273.38 435.653C1270.25 438.38 1266.48 440.527 1262.09 442.092C1257.7 443.607 1252.62 444.365 1246.86 444.365ZM1256.11 422.092C1260.85 422.092 1265.05 421.158 1268.68 419.289C1272.32 417.37 1275.17 414.794 1277.24 411.562C1279.31 408.33 1280.35 404.668 1280.35 400.577V388.229C1279.34 388.885 1277.95 389.491 1276.18 390.047C1274.46 390.552 1272.52 391.032 1270.35 391.486C1268.18 391.89 1266 392.269 1263.83 392.623C1261.66 392.926 1259.69 393.203 1257.92 393.456C1254.14 394.011 1250.83 394.895 1248 396.107C1245.17 397.32 1242.97 398.961 1241.41 401.032C1239.84 403.052 1239.06 405.577 1239.06 408.607C1239.06 413.001 1240.65 416.36 1243.83 418.683C1247.07 420.956 1251.16 422.092 1256.11 422.092ZM1390.79 325.804V350.047H1320.72V325.804H1390.79ZM1336.63 297.926H1368.9V406.41C1368.9 409.39 1369.35 411.713 1370.26 413.38C1371.17 414.996 1372.43 416.133 1374.05 416.789C1375.72 417.446 1377.64 417.774 1379.81 417.774C1381.32 417.774 1382.84 417.648 1384.35 417.395C1385.87 417.092 1387.03 416.865 1387.84 416.713L1392.91 440.729C1391.3 441.234 1389.02 441.814 1386.1 442.471C1383.17 443.178 1379.61 443.607 1375.41 443.759C1367.64 444.062 1360.82 443.027 1354.96 440.653C1349.15 438.279 1344.63 434.592 1341.4 429.592C1338.17 424.592 1336.57 418.279 1336.63 410.653V297.926ZM1454.61 444.441C1442.84 444.441 1432.66 441.941 1424.08 436.941C1415.54 431.89 1408.95 424.87 1404.3 415.88C1399.66 406.84 1397.33 396.36 1397.33 384.441C1397.33 372.421 1399.66 361.915 1404.3 352.926C1408.95 343.885 1415.54 336.865 1424.08 331.865C1432.66 326.815 1442.84 324.289 1454.61 324.289C1466.37 324.289 1476.53 326.815 1485.06 331.865C1493.65 336.865 1500.26 343.885 1504.91 352.926C1509.56 361.915 1511.88 372.421 1511.88 384.441C1511.88 396.36 1509.56 406.84 1504.91 415.88C1500.26 424.87 1493.65 431.89 1485.06 436.941C1476.53 441.941 1466.37 444.441 1454.61 444.441ZM1454.76 419.441C1460.11 419.441 1464.58 417.926 1468.17 414.895C1471.75 411.814 1474.46 407.623 1476.27 402.32C1478.14 397.016 1479.08 390.981 1479.08 384.213C1479.08 377.446 1478.14 371.41 1476.27 366.107C1474.46 360.804 1471.75 356.612 1468.17 353.532C1464.58 350.451 1460.11 348.91 1454.76 348.91C1449.35 348.91 1444.81 350.451 1441.12 353.532C1437.49 356.612 1434.73 360.804 1432.86 366.107C1431.05 371.41 1430.14 377.446 1430.14 384.213C1430.14 390.981 1431.05 397.016 1432.86 402.32C1434.73 407.623 1437.49 411.814 1441.12 414.895C1444.81 417.926 1449.35 419.441 1454.76 419.441ZM1524.33 442.168V325.804H1555.62V346.107H1556.83C1558.95 338.885 1562.51 333.431 1567.51 329.744C1572.51 326.006 1578.27 324.138 1584.79 324.138C1586.4 324.138 1588.14 324.239 1590.01 324.441C1591.88 324.643 1593.52 324.921 1594.94 325.274V353.91C1593.42 353.456 1591.33 353.052 1588.65 352.698C1585.97 352.345 1583.52 352.168 1581.3 352.168C1576.55 352.168 1572.31 353.203 1568.57 355.274C1564.89 357.294 1561.96 360.123 1559.79 363.759C1557.66 367.395 1556.6 371.587 1556.6 376.335V442.168H1524.33Z" fill="#2A2A2B"/>
</svg>
